PathFileType   4   (X/Y/Z)
DataRate	CameraRate	NumFrames	NumMarkers	Units	OrigDataRate	OrigDataStartFrame	OrigNumFrames
120.0	120.0	12	37	mm	120.0	103	136
Frame#	Time	midhip	hip_r	hip_l	knee_r	knee_l	ankle_r	ankle_l	midasis	asis_r	asis_l	psis_r	psis_l	epicondLat_r	epicondLat_l	epicondMed_r	epicondMed_l	malleolusLat_r	malleolusLat_l	malleolusMedv_r	malleolusMedv_l	neck	subclavicle_r	subclavicle_l	sternalnotch	xyphoidprocess	thighwand_r	thighwand_l	upperleg1_r	upperleg1_l	upperleg2_r	upperleg2_l	shankwand_r	shankwand_l	lowerleg1_r	lowerleg1_l	toe_r	toe_l
 	 	X1	Y1	Z1	X2	Y2	Z2	X3	Y3	Z3	X4	Y4	Z4	X5	Y5	Z5	X6	Y6	Z6	X7	Y7	Z7	X8	Y8	Z8	X9	Y9	Z9	X10	Y10	Z10	X11	Y11	Z11	X12	Y12	Z12	X13	Y13	Z13	X14	Y14	Z14	X15	Y15	Z15	X16	Y16	Z16	X17	Y17	Z17	X18	Y18	Z18	X19	Y19	Z19	X20	Y20	Z20	X21	Y21	Z21	X22	Y22	Z22	X23	Y23	Z23	X24	Y24	Z24	X25	Y25	Z25	X26	Y26	Z26	X27	Y27	Z27	X28	Y28	Z28	X29	Y29	Z29	X30	Y30	Z30	X31	Y31	Z31	X32	Y32	Z32	X33	Y33	Z33	X34	Y34	Z34	X35	Y35	Z35	X36	Y36	Z36	X37	Y37	Z37

	103	1.08333	2042.809	774.342	-227.154	2022.679	779.544	-148.264	2024.234	776.806	-303.862	2028.466	418.823	-187.798	2191.298	426.039	-341.763	1981.757	61.224	-210.187	2041.682	102.432	-304.401	2150.379	851.821	-226.091	2149.137	854.009	-101.742	2151.622	849.633	-350.440	1905.303	921.992	-198.561	1904.969	917.759	-253.416	2029.574	411.052	-116.731	2189.973	433.094	-412.902	2014.422	436.275	-261.242	2203.386	408.074	-257.101	1976.453	59.532	-172.092	2024.909	106.079	-339.976	1983.202	73.920	-246.319	2046.486	121.951	-265.024	1958.276	1350.826	-225.431	2081.145	1276.385	-198.944	2075.680	1280.682	-280.127	2060.629	1274.490	-250.816	2107.470	1198.152	-256.753	2184.006	559.159	-92.860	2277.536	669.239	-323.393	2149.052	585.728	-112.952	2230.101	661.716	-333.380	2119.233	515.102	-129.211	2248.058	590.913	-335.716	2085.679	191.194	-183.018	2061.479	198.146	-417.641	2038.653	204.520	-188.489	2070.240	212.739	-373.095	2091.837	43.725	-204.250	2129.137	64.726	-323.927
	104	1.09167	2048.434	773.974	-227.482	2027.850	779.109	-148.691	2030.222	776.687	-304.283	2030.288	418.579	-188.204	2200.235	427.034	-339.645	1981.709	61.230	-210.436	2064.679	97.024	-304.604	2156.073	851.343	-225.694	2154.177	853.280	-101.272	2157.969	849.406	-350.116	1910.831	921.989	-199.355	1910.877	917.628	-254.273	2031.175	410.796	-117.134	2199.560	433.904	-410.811	2017.249	433.349	-260.606	2212.118	408.839	-254.151	1976.426	59.578	-172.336	2047.666	100.243	-340.107	1983.070	73.744	-246.557	2069.346	115.932	-265.134	1964.058	1350.642	-225.439	2086.772	1275.874	-198.583	2081.768	1280.363	-280.329	2066.397	1274.216	-250.857	2113.298	1197.722	-256.652	2186.959	557.663	-92.909	2284.194	670.590	-321.064	2150.409	584.399	-113.361	2236.607	662.286	-331.465	2121.964	514.251	-129.215	2255.320	591.902	-333.305	2086.368	190.712	-183.381	2080.084	194.520	-417.134	2039.319	203.843	-188.768	2088.776	209.103	-372.132	2091.989	43.722	-204.297	2153.687	63.620	-324.660
	105	1.10000	2054.127	773.573	-227.842	2033.091	778.672	-149.150	2036.267	776.494	-304.732	2032.235	418.316	-188.608	2208.777	427.861	-337.504	1981.696	61.239	-210.684	2087.780	92.007	-304.740	2161.817	850.839	-225.372	2159.277	852.582	-100.913	2164.358	849.096	-349.830	1916.369	921.955	-200.213	1916.810	917.446	-255.174	2032.877	410.533	-117.535	2208.771	434.550	-408.691	2019.866	433.279	-261.265	2216.462	410.233	-252.110	1976.432	59.628	-172.579	2070.543	94.760	-340.174	1982.942	73.895	-246.797	2091.386	111.113	-265.073	1969.504	1350.433	-225.576	2092.347	1275.203	-198.460	2087.770	1279.750	-280.608	2072.186	1273.887	-250.898	2119.039	1197.035	-256.602	2189.960	556.166	-92.929	2290.724	671.696	-318.725	2153.505	583.309	-113.250	2243.765	663.445	-330.058	2124.793	513.117	-129.510	2262.326	592.458	-331.153	2087.118	190.201	-183.739	2098.639	191.039	-416.585	2040.330	203.514	-188.942	2106.575	205.943	-371.468	2092.129	43.717	-204.368	2178.152	62.852	-325.275
	106	1.10833	2059.872	773.152	-228.237	2038.398	778.236	-149.637	2042.359	776.233	-305.203	2034.302	418.041	-188.990	2216.944	428.506	-335.352	1981.731	61.268	-210.929	2110.893	87.418	-304.804	2167.604	850.319	-225.122	2164.436	851.922	-100.669	2170.773	848.717	-349.575	1921.942	921.875	-201.132	1922.773	917.217	-256.098	2034.674	410.271	-117.914	2217.621	435.019	-406.552	2022.490	435.265	-263.577	2221.334	411.201	-250.769	1976.483	59.698	-172.821	2093.466	89.668	-340.179	1983.168	73.695	-247.046	2113.314	106.754	-264.934	1974.930	1350.177	-226.065	2098.181	1274.631	-198.397	2093.512	1279.384	-280.739	2078.006	1273.496	-250.932	2124.809	1196.607	-256.853	2192.997	554.669	-92.904	2297.136	672.540	-316.380	2157.749	582.703	-113.387	2250.612	664.516	-328.472	2127.208	511.879	-130.507	2269.139	592.966	-329.167	2087.929	189.668	-184.083	2117.129	187.720	-416.000	2041.210	203.047	-189.365	2124.011	202.306	-371.089	2092.237	43.707	-204.463	2202.467	62.430	-325.754
	107	1.11667	2065.652	772.716	-228.660	2043.767	777.801	-150.144	2048.486	775.915	-305.690	2036.487	417.750	-189.338	2224.758	428.958	-333.200	1981.824	61.333	-211.174	2133.922	83.283	-304.802	2173.426	849.790	-224.939	2169.652	851.299	-100.540	2177.201	848.282	-349.339	1927.579	921.736	-202.101	1928.766	916.947	-257.025	2036.562	410.011	-118.258	2226.133	435.302	-404.405	2024.579	436.211	-264.481	2231.630	410.736	-248.650	1976.588	59.801	-173.063	2116.349	84.998	-340.136	1983.798	73.482	-247.318	2135.890	102.484	-264.847	1980.943	1349.682	-226.907	2103.908	1274.352	-198.428	2099.272	1279.145	-280.821	2083.834	1273.026	-250.957	2130.599	1196.370	-256.934	2196.064	553.179	-92.820	2303.433	673.100	-314.031	2161.242	581.194	-113.368	2255.798	664.261	-326.799	2129.906	511.086	-130.765	2275.844	593.544	-327.156	2088.793	189.117	-184.411	2135.533	184.591	-415.383	2042.584	202.726	-189.929	2141.938	198.887	-370.559	2092.297	43.690	-204.579	2226.563	62.350	-326.092
	108	1.12500	2071.458	772.273	-229.096	2049.195	777.366	-150.661	2054.640	775.549	-306.184	2038.793	417.440	-189.644	2232.245	429.211	-331.062	1981.970	61.441	-211.422	2156.766	79.625	-304.749	2179.276	849.257	-224.814	2174.925	850.710	-100.514	2183.628	847.805	-349.114	1933.310	921.527	-203.105	1934.794	916.635	-257.941	2038.543	409.748	-118.560	2234.332	435.395	-402.263	2026.911	435.039	-263.795	2238.241	410.584	-247.715	1976.744	59.943	-173.307	2139.103	80.781	-340.061	1984.606	73.965	-247.624	2159.740	98.187	-264.969	1987.152	1349.051	-227.421	2109.437	1274.093	-198.119	2105.170	1278.778	-280.823	2089.682	1272.500	-250.975	2136.394	1196.032	-256.526	2199.155	551.705	-92.666	2309.618	673.356	-311.683	2163.965	579.385	-113.248	2262.683	664.731	-323.639	2132.994	510.317	-130.310	2282.316	593.972	-325.000	2089.697	188.549	-184.729	2153.817	181.683	-414.743	2045.048	203.128	-190.335	2160.837	196.075	-369.727	2092.305	43.666	-204.707	2250.366	62.606	-326.303
	109	1.13333	2077.291	771.821	-229.530	2054.680	776.924	-151.178	2060.814	775.140	-306.675	2041.232	417.102	-189.911	2239.431	429.267	-328.952	1982.161	61.592	-211.672	2179.334	76.460	-304.668	2185.151	848.722	-224.735	2180.254	850.146	-100.576	2190.048	847.297	-348.895	1939.154	921.241	-204.128	1940.861	916.275	-258.839	2040.628	409.472	-118.822	2242.237	435.301	-400.142	2030.321	433.721	-263.402	2245.051	410.760	-244.481	1976.944	60.126	-173.555	2161.638	77.044	-339.977	1984.317	74.164	-247.833	2183.179	94.230	-265.015	1993.093	1348.557	-227.603	2114.833	1273.608	-197.641	2111.391	1278.077	-280.818	2095.590	1271.951	-251.011	2142.252	1195.346	-255.753	2202.280	550.257	-92.435	2315.694	673.292	-309.347	2167.659	579.300	-113.515	2268.655	664.712	-321.635	2135.823	509.300	-130.194	2288.746	593.858	-322.446	2090.636	187.959	-185.041	2171.931	179.028	-414.091	2045.240	202.729	-190.385	2179.434	193.124	-368.727	2092.271	43.634	-204.835	2273.798	63.185	-326.414
	110	1.14167	2083.160	771.356	-229.949	2060.222	776.465	-151.688	2067.004	774.691	-307.159	2043.821	416.729	-190.144	2246.336	429.133	-326.888	1982.382	61.780	-211.924	2201.544	73.798	-304.585	2191.048	848.180	-224.692	2185.640	849.594	-100.706	2196.457	846.766	-348.679	1945.121	920.872	-205.161	1946.972	915.863	-259.721	2042.834	409.174	-119.051	2249.864	435.027	-398.057	2036.252	424.929	-263.082	2249.951	410.592	-241.500	1977.176	60.342	-173.804	2183.868	73.809	-339.910	1984.442	74.125	-248.074	2205.503	90.904	-264.889	1998.834	1348.195	-227.885	2120.590	1272.904	-197.595	2117.471	1276.955	-280.880	2101.570	1271.356	-251.095	2148.024	1194.274	-255.234	2205.455	548.844	-92.121	2321.667	672.907	-307.038	2167.126	575.684	-115.879	2274.369	664.291	-319.892	2139.241	508.609	-130.333	2294.598	593.019	-320.042	2091.609	187.339	-185.355	2189.812	176.655	-413.443	2045.737	202.270	-190.693	2197.283	190.185	-367.706	2092.210	43.597	-204.954	2296.783	64.071	-326.460
	111	1.15000	2089.073	770.863	-230.349	2065.818	775.977	-152.191	2073.211	774.203	-307.634	2046.578	416.313	-190.350	2252.973	428.825	-324.882	1982.619	61.992	-212.171	2223.326	71.640	-304.532	2196.970	847.624	-224.678	2191.082	849.036	-100.887	2202.857	846.211	-348.469	1951.208	920.418	-206.203	1953.127	915.394	-260.598	2045.180	408.845	-119.255	2257.220	434.588	-396.023	2036.814	437.176	-265.998	2253.748	409.910	-239.684	1977.428	60.581	-174.049	2205.714	71.088	-339.884	1985.145	73.651	-248.349	2226.966	88.517	-264.769	2004.651	1347.731	-228.113	2126.889	1272.066	-197.939	2123.333	1276.259	-280.859	2107.609	1270.678	-251.218	2153.966	1193.519	-255.705	2208.708	547.472	-91.724	2327.548	672.210	-304.776	2176.563	576.531	-112.575	2280.391	663.329	-318.048	2142.513	508.013	-130.284	2300.178	592.076	-317.940	2092.627	186.683	-185.673	2207.389	174.588	-412.817	2046.656	201.622	-191.385	2214.542	187.810	-367.029	2092.142	43.559	-205.056	2319.243	65.244	-326.480
	112	1.15833	2095.026	770.331	-230.738	2071.463	775.448	-152.691	2079.436	773.674	-308.106	2049.521	415.850	-190.536	2259.353	428.366	-322.947	1982.860	62.214	-212.406	2244.619	69.977	-304.539	2202.915	847.039	-224.687	2196.574	848.450	-101.099	2209.255	845.629	-348.274	1957.402	919.876	-207.256	1959.324	914.871	-261.479	2047.686	408.480	-119.441	2264.307	434.004	-394.052	2040.005	429.115	-264.342	2259.373	409.187	-237.324	1977.691	60.831	-174.280	2227.103	68.880	-339.926	1985.344	73.706	-248.586	2247.091	87.068	-264.592	2010.524	1347.050	-228.440	2132.911	1271.294	-198.274	2129.752	1276.137	-280.989	2113.696	1269.940	-251.367	2160.425	1193.262	-256.446	2212.068	546.147	-91.243	2333.352	671.222	-302.589	2174.613	573.670	-113.838	2286.235	662.082	-316.362	2145.032	506.975	-130.012	2306.075	591.491	-315.743	2093.703	185.990	-185.992	2224.589	172.840	-412.236	2047.747	201.037	-191.635	2230.876	186.094	-366.655	2092.089	43.522	-205.138	2341.109	66.683	-326.514
	113	1.16667	2101.008	769.751	-231.134	2077.147	774.865	-153.199	2085.680	773.099	-308.584	2052.663	415.342	-190.707	2265.486	427.783	-321.092	1983.099	62.436	-212.616	2265.371	68.786	-304.635	2208.885	846.412	-224.715	2202.109	847.814	-101.323	2215.660	845.009	-348.106	1963.687	919.252	-208.327	1965.556	914.299	-262.378	2050.370	408.081	-119.613	2271.127	433.295	-392.156	2043.272	431.193	-265.057	2264.554	408.130	-234.635	1977.959	61.082	-174.484	2247.966	67.167	-340.057	1984.762	74.691	-248.765	2267.487	85.715	-264.627	2016.515	1346.320	-229.139	2138.760	1270.739	-198.560	2136.107	1275.395	-281.185	2119.815	1269.186	-251.517	2166.685	1192.598	-256.336	2215.565	544.871	-90.683	2339.096	669.977	-300.506	2179.725	572.880	-112.740	2291.883	660.617	-314.448	2148.604	505.893	-129.726	2311.632	590.261	-313.491	2094.855	185.261	-186.306	2241.337	171.416	-411.723	2048.851	200.912	-191.257	2247.309	184.756	-366.043	2092.063	43.491	-205.199	2362.316	68.364	-326.596
	114	1.17500	2107.007	769.116	-231.561	2082.861	774.222	-153.721	2091.943	772.477	-309.076	2056.008	414.797	-190.861	2271.385	427.101	-319.324	1983.332	62.654	-212.789	2285.533	68.032	-304.842	2214.880	845.727	-224.759	2207.676	847.111	-101.540	2222.084	844.343	-347.977	1970.042	918.555	-209.418	1971.814	913.686	-263.300	2053.242	407.658	-119.772	2277.684	432.481	-390.343	2049.364	429.187	-265.816	2268.659	406.775	-232.425	1978.231	61.332	-174.651	2268.243	65.921	-340.294	1984.569	75.630	-248.932	2287.732	84.512	-264.809	2022.672	1345.632	-229.629	2144.790	1270.117	-198.858	2142.123	1273.995	-281.141	2125.951	1268.422	-251.668	2172.550	1191.384	-255.729	2219.218	543.648	-90.054	2344.801	668.514	-298.557	2184.036	571.442	-112.957	2297.683	659.137	-312.322	2153.043	505.109	-129.517	2316.964	588.450	-311.389	2096.091	184.502	-186.609	2257.568	170.311	-411.299	2050.331	201.087	-191.108	2263.511	183.527	-365.281	2092.072	43.466	-205.242	2382.813	70.262	-326.751
